# xmcd
#
# Track frame offsets: 
#        150
#        25425
#        54075
#        72525
#        99225
#        144300
#        180375
#        216825
#
# Disc length: 3230 seconds
#
# Revision: 2
# Processed by: cddbd v1.5.2PL0 Copyright (c) Steve Scherf et al.
# Submitted via: ExactAudioCopy v0.95b4
#
DISCID=690c9c08
DTITLE=Luis Bacalov - Misa Tango
DYEAR=2000
DGENRE=Tango
TTITLE0=Misa Tango - Kyrie
TTITLE1=Misa Tango - Gloria
TTITLE2=Misa Tango - Credo
TTITLE3=Misa Tango - Sanctus
TTITLE4=Misa Tango - Agnus Dei
TTITLE5=Tangosaín
TTITLE6=Adiós Nonino (Astor Piazzolla) 
TTITLE7=Libertango (Astor Piazzolla)
EXTD=
EXTT0=
EXTT1=
EXTT2=
EXTT3=
EXTT4=
EXTT5=
EXTT6=
EXTT7=
PLAYORDER=
